<svg class="logo" width="32.758px" height="48px" viewBox="0 0 32.758 48" enable-background="new 0 0 32.758 48" xmlns="http://www.w3.org/2000/svg">
          <g>
  <rect x="0.753" y="39.227" fill="#e14a39" width="31.47" height="4.938"/>
  <g>
    <g>
      <path fill="#012c56" d="M30.427,11.28c-1.406-2.319-3.333-4.142-5.779-5.464c-2.447-1.32-5.204-1.981-8.269-1.981
        c-3.066,0-5.829,0.661-8.29,1.981C5.627,7.138,3.701,8.96,2.309,11.28c-1.392,2.321-2.089,4.93-2.089,7.826
        c0,2.897,0.696,5.506,2.089,7.825c1.392,2.32,3.318,4.143,5.78,5.464c1.69,0.907,3.526,1.497,5.501,1.781v-6.008
        c-0.677-0.196-1.324-0.466-1.937-0.815c-1.407-0.802-2.51-1.919-3.312-3.353c-0.801-1.435-1.202-3.065-1.202-4.895
        c0-1.828,0.401-3.46,1.202-4.895c0.802-1.435,1.905-2.552,3.312-3.354c1.406-0.801,2.981-1.202,4.725-1.202
        c1.744,0,3.318,0.401,4.725,1.202c1.406,0.802,2.511,1.919,3.313,3.354c0.801,1.435,1.202,3.066,1.202,4.895
        c0,1.829-0.401,3.46-1.202,4.895c-0.802,1.434-1.906,2.551-3.313,3.353c-0.547,0.313-1.12,0.561-1.718,0.753v6.037
        c1.888-0.295,3.644-0.874,5.263-1.748c2.447-1.321,4.373-3.144,5.779-5.464c1.406-2.319,2.11-4.928,2.11-7.825
        C32.537,16.209,31.833,13.601,30.427,11.28z"/>
    </g>
  </g>
</g>
        </svg>